<mxfile host="app.diagrams.net" modified="2023-06-08T08:10:07.388Z" agent="Mozilla/5.0 (Windows NT 10.0; Win64; x64) AppleWebKit/537.36 (KHTML, like Gecko) Chrome/113.0.0.0 Safari/537.36 Edg/113.0.1774.42" etag="E52Ztps4RSQs0QRYM2xV" version="21.3.7" type="device">
  <diagram name="Page-1" id="2xLWfQbhbiG0_dAI28AS">
    <mxGraphModel dx="996" dy="581" grid="1" gridSize="10" guides="1" tooltips="1" connect="1" arrows="1" fold="1" page="1" pageScale="1" pageWidth="850" pageHeight="1100" math="0" shadow="0">
      <root>
        <mxCell id="0" />
        <mxCell id="1" parent="0" />
        <mxCell id="eIuJconnMD9eOJ6AQZbh-11" value="" style="rounded=0;whiteSpace=wrap;html=1;" vertex="1" parent="1">
          <mxGeometry x="120" y="180" width="480" height="550" as="geometry" />
        </mxCell>
        <mxCell id="eIuJconnMD9eOJ6AQZbh-6" value="&lt;font style=&quot;font-size: 10px;&quot;&gt;SoundManager&lt;/font&gt;" style="swimlane;fontStyle=1;align=center;verticalAlign=top;childLayout=stackLayout;horizontal=1;startSize=26;horizontalStack=0;resizeParent=1;resizeParentMax=0;resizeLast=0;collapsible=1;marginBottom=0;whiteSpace=wrap;html=1;" vertex="1" parent="1">
          <mxGeometry x="150" y="200" width="210" height="190" as="geometry" />
        </mxCell>
        <mxCell id="eIuJconnMD9eOJ6AQZbh-7" value="&lt;font style=&quot;font-size: 10px;&quot;&gt;- _backgroundSounds : List&amp;lt;Sound&amp;gt;&lt;/font&gt;" style="text;strokeColor=none;fillColor=none;align=left;verticalAlign=top;spacingLeft=4;spacingRight=4;overflow=hidden;rotatable=0;points=[[0,0.5],[1,0.5]];portConstraint=eastwest;whiteSpace=wrap;html=1;" vertex="1" parent="eIuJconnMD9eOJ6AQZbh-6">
          <mxGeometry y="26" width="210" height="26" as="geometry" />
        </mxCell>
        <mxCell id="eIuJconnMD9eOJ6AQZbh-55" value="&lt;font style=&quot;font-size: 10px;&quot;&gt;- _soundEffects : List&amp;lt;Sound&amp;gt;&lt;/font&gt;" style="text;strokeColor=none;fillColor=none;align=left;verticalAlign=top;spacingLeft=4;spacingRight=4;overflow=hidden;rotatable=0;points=[[0,0.5],[1,0.5]];portConstraint=eastwest;whiteSpace=wrap;html=1;" vertex="1" parent="eIuJconnMD9eOJ6AQZbh-6">
          <mxGeometry y="52" width="210" height="26" as="geometry" />
        </mxCell>
        <mxCell id="eIuJconnMD9eOJ6AQZbh-86" value="&lt;font style=&quot;font-size: 10px;&quot;&gt;- _soundCues : List&amp;lt;Sound&amp;gt;&lt;/font&gt;" style="text;strokeColor=none;fillColor=none;align=left;verticalAlign=top;spacingLeft=4;spacingRight=4;overflow=hidden;rotatable=0;points=[[0,0.5],[1,0.5]];portConstraint=eastwest;whiteSpace=wrap;html=1;" vertex="1" parent="eIuJconnMD9eOJ6AQZbh-6">
          <mxGeometry y="78" width="210" height="26" as="geometry" />
        </mxCell>
        <mxCell id="eIuJconnMD9eOJ6AQZbh-8" value="" style="line;strokeWidth=1;fillColor=none;align=left;verticalAlign=middle;spacingTop=-1;spacingLeft=3;spacingRight=3;rotatable=0;labelPosition=right;points=[];portConstraint=eastwest;strokeColor=inherit;" vertex="1" parent="eIuJconnMD9eOJ6AQZbh-6">
          <mxGeometry y="104" width="210" height="8" as="geometry" />
        </mxCell>
        <mxCell id="eIuJconnMD9eOJ6AQZbh-9" value="&lt;font style=&quot;font-size: 10px;&quot;&gt;+ PlaySound() : void&lt;/font&gt;" style="text;strokeColor=none;fillColor=none;align=left;verticalAlign=top;spacingLeft=4;spacingRight=4;overflow=hidden;rotatable=0;points=[[0,0.5],[1,0.5]];portConstraint=eastwest;whiteSpace=wrap;html=1;" vertex="1" parent="eIuJconnMD9eOJ6AQZbh-6">
          <mxGeometry y="112" width="210" height="26" as="geometry" />
        </mxCell>
        <mxCell id="eIuJconnMD9eOJ6AQZbh-53" value="&lt;font style=&quot;font-size: 10px;&quot;&gt;+ StopSound() : void&lt;/font&gt;" style="text;strokeColor=none;fillColor=none;align=left;verticalAlign=top;spacingLeft=4;spacingRight=4;overflow=hidden;rotatable=0;points=[[0,0.5],[1,0.5]];portConstraint=eastwest;whiteSpace=wrap;html=1;" vertex="1" parent="eIuJconnMD9eOJ6AQZbh-6">
          <mxGeometry y="138" width="210" height="26" as="geometry" />
        </mxCell>
        <mxCell id="eIuJconnMD9eOJ6AQZbh-73" value="&lt;font style=&quot;font-size: 10px;&quot;&gt;+ Volume() : int&lt;/font&gt;" style="text;strokeColor=none;fillColor=none;align=left;verticalAlign=top;spacingLeft=4;spacingRight=4;overflow=hidden;rotatable=0;points=[[0,0.5],[1,0.5]];portConstraint=eastwest;whiteSpace=wrap;html=1;" vertex="1" parent="eIuJconnMD9eOJ6AQZbh-6">
          <mxGeometry y="164" width="210" height="26" as="geometry" />
        </mxCell>
        <mxCell id="eIuJconnMD9eOJ6AQZbh-10" value="&lt;b&gt;&lt;font style=&quot;font-size: 10px;&quot;&gt;Sounds&lt;/font&gt;&lt;/b&gt;" style="rounded=0;whiteSpace=wrap;html=1;" vertex="1" parent="1">
          <mxGeometry x="120" y="160" width="80" height="20" as="geometry" />
        </mxCell>
        <mxCell id="eIuJconnMD9eOJ6AQZbh-49" value="&lt;b&gt;&lt;font style=&quot;font-size: 10px;&quot;&gt;Sound&lt;/font&gt;&lt;/b&gt;" style="swimlane;fontStyle=0;childLayout=stackLayout;horizontal=1;startSize=26;fillColor=none;horizontalStack=0;resizeParent=1;resizeParentMax=0;resizeLast=0;collapsible=1;marginBottom=0;whiteSpace=wrap;html=1;" vertex="1" parent="1">
          <mxGeometry x="285" y="555" width="140" height="156" as="geometry" />
        </mxCell>
        <mxCell id="eIuJconnMD9eOJ6AQZbh-50" value="&lt;font style=&quot;font-size: 10px;&quot;&gt;+ Name&lt;/font&gt;" style="text;strokeColor=none;fillColor=none;align=left;verticalAlign=top;spacingLeft=4;spacingRight=4;overflow=hidden;rotatable=0;points=[[0,0.5],[1,0.5]];portConstraint=eastwest;whiteSpace=wrap;html=1;" vertex="1" parent="eIuJconnMD9eOJ6AQZbh-49">
          <mxGeometry y="26" width="140" height="26" as="geometry" />
        </mxCell>
        <mxCell id="eIuJconnMD9eOJ6AQZbh-54" value="&lt;font style=&quot;font-size: 10px;&quot;&gt;+ ID&lt;/font&gt;" style="text;strokeColor=none;fillColor=none;align=left;verticalAlign=top;spacingLeft=4;spacingRight=4;overflow=hidden;rotatable=0;points=[[0,0.5],[1,0.5]];portConstraint=eastwest;whiteSpace=wrap;html=1;" vertex="1" parent="eIuJconnMD9eOJ6AQZbh-49">
          <mxGeometry y="52" width="140" height="26" as="geometry" />
        </mxCell>
        <mxCell id="eIuJconnMD9eOJ6AQZbh-51" value="&lt;font style=&quot;font-size: 10px;&quot;&gt;+ SoundType&lt;/font&gt;" style="text;strokeColor=none;fillColor=none;align=left;verticalAlign=top;spacingLeft=4;spacingRight=4;overflow=hidden;rotatable=0;points=[[0,0.5],[1,0.5]];portConstraint=eastwest;whiteSpace=wrap;html=1;" vertex="1" parent="eIuJconnMD9eOJ6AQZbh-49">
          <mxGeometry y="78" width="140" height="26" as="geometry" />
        </mxCell>
        <mxCell id="eIuJconnMD9eOJ6AQZbh-56" value="&lt;font style=&quot;font-size: 10px;&quot;&gt;+ Volume&lt;/font&gt;" style="text;strokeColor=none;fillColor=none;align=left;verticalAlign=top;spacingLeft=4;spacingRight=4;overflow=hidden;rotatable=0;points=[[0,0.5],[1,0.5]];portConstraint=eastwest;whiteSpace=wrap;html=1;" vertex="1" parent="eIuJconnMD9eOJ6AQZbh-49">
          <mxGeometry y="104" width="140" height="26" as="geometry" />
        </mxCell>
        <mxCell id="eIuJconnMD9eOJ6AQZbh-80" value="&lt;font style=&quot;font-size: 10px;&quot;&gt;+ State&lt;/font&gt;" style="text;strokeColor=none;fillColor=none;align=left;verticalAlign=top;spacingLeft=4;spacingRight=4;overflow=hidden;rotatable=0;points=[[0,0.5],[1,0.5]];portConstraint=eastwest;whiteSpace=wrap;html=1;" vertex="1" parent="eIuJconnMD9eOJ6AQZbh-49">
          <mxGeometry y="130" width="140" height="26" as="geometry" />
        </mxCell>
        <mxCell id="eIuJconnMD9eOJ6AQZbh-74" value="SOUND_TYPE" style="swimlane;fontStyle=1;childLayout=stackLayout;horizontal=1;startSize=26;fillColor=none;horizontalStack=0;resizeParent=1;resizeParentMax=0;resizeLast=0;collapsible=1;marginBottom=0;whiteSpace=wrap;html=1;fontSize=10;" vertex="1" parent="1">
          <mxGeometry x="150" y="410" width="170" height="104" as="geometry" />
        </mxCell>
        <mxCell id="eIuJconnMD9eOJ6AQZbh-75" value="BACKGROUND_SOUND" style="text;strokeColor=none;fillColor=none;align=left;verticalAlign=top;spacingLeft=4;spacingRight=4;overflow=hidden;rotatable=0;points=[[0,0.5],[1,0.5]];portConstraint=eastwest;whiteSpace=wrap;html=1;fontSize=10;" vertex="1" parent="eIuJconnMD9eOJ6AQZbh-74">
          <mxGeometry y="26" width="170" height="26" as="geometry" />
        </mxCell>
        <mxCell id="eIuJconnMD9eOJ6AQZbh-76" value="SOUND_EFFECT" style="text;strokeColor=none;fillColor=none;align=left;verticalAlign=top;spacingLeft=4;spacingRight=4;overflow=hidden;rotatable=0;points=[[0,0.5],[1,0.5]];portConstraint=eastwest;whiteSpace=wrap;html=1;fontSize=10;" vertex="1" parent="eIuJconnMD9eOJ6AQZbh-74">
          <mxGeometry y="52" width="170" height="26" as="geometry" />
        </mxCell>
        <mxCell id="eIuJconnMD9eOJ6AQZbh-77" value="SOUND_CUE" style="text;strokeColor=none;fillColor=none;align=left;verticalAlign=top;spacingLeft=4;spacingRight=4;overflow=hidden;rotatable=0;points=[[0,0.5],[1,0.5]];portConstraint=eastwest;whiteSpace=wrap;html=1;fontSize=10;" vertex="1" parent="eIuJconnMD9eOJ6AQZbh-74">
          <mxGeometry y="78" width="170" height="26" as="geometry" />
        </mxCell>
        <mxCell id="eIuJconnMD9eOJ6AQZbh-79" value="" style="endArrow=classic;html=1;rounded=0;exitX=0.5;exitY=0;exitDx=0;exitDy=0;entryX=0.469;entryY=1.025;entryDx=0;entryDy=0;entryPerimeter=0;" edge="1" parent="1" source="eIuJconnMD9eOJ6AQZbh-49" target="eIuJconnMD9eOJ6AQZbh-77">
          <mxGeometry width="50" height="50" relative="1" as="geometry">
            <mxPoint x="380" y="570" as="sourcePoint" />
            <mxPoint x="430" y="520" as="targetPoint" />
            <Array as="points">
              <mxPoint x="355" y="535" />
              <mxPoint x="230" y="535" />
            </Array>
          </mxGeometry>
        </mxCell>
        <mxCell id="eIuJconnMD9eOJ6AQZbh-81" value="SOUND_STATE" style="swimlane;fontStyle=1;childLayout=stackLayout;horizontal=1;startSize=26;fillColor=none;horizontalStack=0;resizeParent=1;resizeParentMax=0;resizeLast=0;collapsible=1;marginBottom=0;whiteSpace=wrap;html=1;fontSize=10;" vertex="1" parent="1">
          <mxGeometry x="390" y="423" width="170" height="78" as="geometry" />
        </mxCell>
        <mxCell id="eIuJconnMD9eOJ6AQZbh-82" value="ACTIVE" style="text;strokeColor=none;fillColor=none;align=left;verticalAlign=top;spacingLeft=4;spacingRight=4;overflow=hidden;rotatable=0;points=[[0,0.5],[1,0.5]];portConstraint=eastwest;whiteSpace=wrap;html=1;fontSize=10;" vertex="1" parent="eIuJconnMD9eOJ6AQZbh-81">
          <mxGeometry y="26" width="170" height="26" as="geometry" />
        </mxCell>
        <mxCell id="eIuJconnMD9eOJ6AQZbh-84" value="INACTIVE" style="text;strokeColor=none;fillColor=none;align=left;verticalAlign=top;spacingLeft=4;spacingRight=4;overflow=hidden;rotatable=0;points=[[0,0.5],[1,0.5]];portConstraint=eastwest;whiteSpace=wrap;html=1;fontSize=10;" vertex="1" parent="eIuJconnMD9eOJ6AQZbh-81">
          <mxGeometry y="52" width="170" height="26" as="geometry" />
        </mxCell>
        <mxCell id="eIuJconnMD9eOJ6AQZbh-85" value="" style="endArrow=classic;html=1;rounded=0;exitX=0.5;exitY=0;exitDx=0;exitDy=0;entryX=0.478;entryY=1.038;entryDx=0;entryDy=0;entryPerimeter=0;" edge="1" parent="1" source="eIuJconnMD9eOJ6AQZbh-49" target="eIuJconnMD9eOJ6AQZbh-84">
          <mxGeometry width="50" height="50" relative="1" as="geometry">
            <mxPoint x="365" y="565" as="sourcePoint" />
            <mxPoint x="240" y="525" as="targetPoint" />
            <Array as="points">
              <mxPoint x="355" y="535" />
              <mxPoint x="471" y="535" />
            </Array>
          </mxGeometry>
        </mxCell>
      </root>
    </mxGraphModel>
  </diagram>
</mxfile>
